<svg width="83" height="80" viewBox="0 0 83 80" fill="none" xmlns="http://www.w3.org/2000/svg">
<path d="M39.9366 19.6001C41.6516 18.5711 43.3666 17.5421 45.0816 16.5132C43.1876 12.9409 40.958 9.94884 38.0752 7.14606C32.0536 0.506882 19.3647 -2.52313 10.4482 2.52095C2.42594 5.65313 -1.20128 17.0427 0.351931 23.9025C1.43066 31.2417 4.27087 37.2363 7.40843 42.85C13.8282 53.9827 22.0201 63.403 31.1938 71.813C32.0414 72.5838 32.9022 73.3468 33.7668 74.0934L39.4143 79.0269L44.7155 73.6568C52.384 65.7628 60.9557 58.2775 69.1314 49.4524C73.1754 44.9445 77.3299 40.2907 80.3096 33.5293C81.7355 30.1663 82.7801 25.8261 81.8274 21.3344C80.9023 16.8391 78.169 13.3392 75.4458 10.9842C69.0947 4.51564 56.1986 2.51213 48.8327 7.97882C45.3055 10.2012 42.5895 12.8437 40.1665 16.1826C41.7282 17.4319 43.29 18.6813 44.8517 19.9307C46.9749 17.9512 49.8023 16.0373 52.4886 14.982C58.5609 12.5157 63.4704 14.4178 67.5722 19.1292C70.3833 22.6426 70.1401 24.1236 68.264 27.9086C66.2471 31.5284 62.5098 35.4347 58.6072 39.1548C50.689 46.6398 41.6702 53.9673 33.3027 62.4566L44.2514 62.02C43.484 61.3494 42.7167 60.6652 41.9582 59.9755C33.7505 52.4721 26.0748 44.106 20.1158 35.1223C14.2195 26.2938 10.1891 15.6817 15.9802 12.592C21.0918 9.05474 27.0886 9.14765 33.0476 13.2398C35.5648 14.9234 38.0685 17.2931 39.9366 19.6001ZM45.0816 16.5132L39.9366 19.6001L42.6426 23.2725L44.8517 19.9307L40.1665 16.1826L45.0816 16.5132Z" fill="#331B0B"/>
</svg>
