<svg width="69" height="64" viewBox="0 0 69 64" fill="none" xmlns="http://www.w3.org/2000/svg">
<path d="M21.5969 51.1829C19.6559 47.6277 14.0165 48.4694 11.2924 44.1727C8.63412 39.8297 10.1452 37.8133 6.47253 33.3502C2.7267 28.7409 1.86437 22.3416 0.420227 19.4475C-0.366636 17.9586 0.0915971 16.9019 0.654968 15.8146C1.26197 14.7089 1.81106 13.5737 2.34507 11.1328C3.06876 8.22144 4.85314 6.40583 6.70368 5.38734C7.85759 4.78768 9.09677 4.38481 10.5526 4.11798C12.2903 3.78453 15.7485 2.83306 19.3106 3.13708C22.8868 3.3569 26.0983 4.86296 27.9971 5.37978C32.0539 6.49582 33.3073 11.3491 34.1124 13.5206C34.396 14.2258 34.5152 14.8426 34.5326 15.331C34.5367 15.4354 34.5129 15.5461 34.4489 15.6101C34.4086 15.7181 34.3145 15.7539 34.2277 15.8011C34.2276 15.8012 34.2275 15.8012 34.2274 15.8013C34.0254 15.9458 33.7352 15.9143 33.6069 15.7541C32.9204 14.8635 31.6557 13.681 29.7623 12.8564C26.267 11.6037 27.2537 9.69936 22.994 8.56154C18.627 8.07013 17.39 9.92287 12.737 11.1861C12.1928 11.3637 11.7317 11.6072 11.3127 11.9093C10.1406 12.7951 10.5049 13.9612 10.845 14.7428C11.2248 15.5949 11.2415 16.3889 11.0149 19.5377C11.2757 27.209 16.4226 25.8064 21.3327 31.39C26.4895 37.0676 31.7413 46.1921 35.4794 49.3413C35.8154 49.625 36.2836 50.0221 36.5652 50.2386L28.7036 49.9311C32.0383 47.0223 36.3954 42.7914 41.1621 38.9514C46.4999 34.6345 51.0282 27.303 54.7756 22.1772C55.996 20.5214 57.0556 18.5717 57.3932 17.0074C57.7421 15.4705 57.516 14.0997 56.1762 12.5896C54.3446 10.6726 52.5358 9.29991 51.1805 8.48133C47.3791 6.39724 45.5315 6.29328 42.187 8.83298C40.3173 10.3916 37.8682 12.7844 35.3387 15.1293C34.1114 16.3079 33.3835 15.7121 33.8047 13.9122C34.4761 11.2928 36.1437 9.83838 36.2947 8.07084C36.6971 4.56002 37.6707 2.40788 42.2335 1.94855C46.5238 1.84757 48.6071 -0.621885 51.2409 0.148596C53.384 1.17416 53.6403 1.78703 61.1294 5.97517C61.8706 6.44848 62.6172 6.98114 63.3959 7.66836C69.1312 12.7985 68.2564 20.0727 67.4416 23.405C66.5192 27.1392 65.342 29.4057 64.4106 31.2936C62.5519 35.1419 56.3333 40.5181 52.4421 45.1793C48.9237 49.5832 40.8995 56.2755 36.6041 60.2724L32.9096 63.6703L27.881 59.9312C27.3973 59.5764 26.9122 59.222 26.5247 58.9731C22.2885 56.1618 23.6183 54.7645 21.5969 51.1829Z" fill="#331B0B"/>
</svg>
